<svg width="96" height="96" viewBox="0 0 96 96" fill="none" xmlns="http://www.w3.org/2000/svg">
<g clip-path="url(#clip0_292_428)">
<path d="M48.1697 36.4551L31.8423 46.723C30.7189 47.4292 30.7189 48.5742 31.8423 49.2804L48.1697 59.545C49.2931 60.2512 50.0573 59.7579 49.876 58.4432L49.2796 54.784C49.0983 53.4699 50.0276 52.4045 51.3545 52.4045L62.5969 52.4045C63.9237 52.4045 64.9999 51.329 64.9999 50.0021L64.9999 46.0026C64.9999 44.6751 63.9244 43.5996 62.5969 43.5996L51.3552 43.5996C50.0283 43.5996 49.099 42.5335 49.2803 41.2201L49.8767 37.5569C50.0573 36.2428 49.2931 35.7489 48.1697 36.4551Z" fill="#4A4A4A"/>
</g>
<defs>
<clipPath id="clip0_292_428">
<rect width="34" height="34" fill="white" transform="translate(31 65) rotate(-90)"/>
</clipPath>
</defs>
</svg>
