<svg width="61" height="61" viewBox="0 0 61 61" fill="none" xmlns="http://www.w3.org/2000/svg">
<g clip-path="url(#clip0_292_439)">
<path d="M30.608 23.1646L20.2332 29.689C19.5194 30.1377 19.5194 30.8652 20.2332 31.314L30.608 37.8363C31.3218 38.285 31.8073 37.9716 31.6922 37.1362L31.3132 34.8111C31.198 33.9761 31.7885 33.2991 32.6316 33.2991L39.7752 33.2991C40.6183 33.2991 41.3021 32.6157 41.3021 31.7726L41.3021 29.2312C41.3021 28.3877 40.6188 27.7043 39.7752 27.7043L32.632 27.7043C31.7889 27.7043 31.1985 27.0269 31.3136 26.1923L31.6926 23.8647C31.8073 23.0297 31.3218 22.7158 30.608 23.1646Z" fill="#4A4A4A"/>
</g>
<defs>
<clipPath id="clip0_292_439">
<rect width="21.6042" height="21.6042" fill="white" transform="translate(19.6979 41.3022) rotate(-90)"/>
</clipPath>
</defs>
</svg>
