<svg width="287" height="138" viewBox="0 0 287 138" fill="none" xmlns="http://www.w3.org/2000/svg">
<path d="M-3.84082 137.494C40.3184 110.898 68.4198 102.367 68.4198 86.3093C68.4198 70.2514 73.9397 51.1826 100.034 52.1862C126.128 53.1898 137.168 78.2803 151.72 65.2333C166.273 52.1862 167.276 28.6012 188.352 17.5613C209.428 6.52153 214.446 -0.00199592 225.486 -1.00562" stroke="#E5E2FA" stroke-width="1.00362"/>
<path d="M135.857 35.9151L192.808 74.3417L189.918 76.4748L132.651 37.4175L135.857 35.9151Z" fill="#FFA673"/>
<path d="M238.266 69.5714L283.275 85.6399L281.316 88.5343L236.024 71.9973L238.266 69.5714Z" fill="#E6E3FA"/>
<path d="M-3.96323 116.488L38.2963 121.158L37.1383 124.435L-5.45633 119.38L-3.96323 116.488Z" fill="#73FFDD"/>
<circle cx="273.157" cy="53.1899" r="13.0471" fill="#38DBFF"/>
</svg>
