<svg width="286" height="138" viewBox="0 0 286 138" fill="none" xmlns="http://www.w3.org/2000/svg">
<path d="M-3 137C41 110.5 69 102 69 86C69 70 74.5 51 100.5 52C126.5 53 137.5 78 152 65C166.5 52 167.5 28.5 188.5 17.5C209.5 6.5 214.5 0 225.5 -1" stroke="#E5E2FA" stroke-opacity="0.3"/>
<path d="M136.194 35.7875L192.94 74.0756L190.06 76.201L133 37.2845L136.194 35.7875Z" fill="#F1803E"/>
<path d="M238.233 69.3225L283.08 85.333L281.128 88.217L236 71.7396L238.233 69.3225Z" fill="#E6E3FA"/>
<path d="M-3.12198 116.07L38.9852 120.723L37.8313 123.988L-4.60969 118.951L-3.12198 116.07Z" fill="#7D86D4"/>
<circle cx="273" cy="53" r="13" fill="#E6E3FA"/>
</svg>
