<svg width="574" height="276" viewBox="0 0 574 276" fill="none" xmlns="http://www.w3.org/2000/svg">
<path d="M-5.67163 274.509C82.493 221.41 138.598 204.378 138.598 172.318C138.598 140.258 149.618 102.187 201.716 104.191C253.813 106.195 275.854 156.288 304.908 130.239C333.963 104.191 335.966 57.1029 378.045 35.0618C420.123 13.0206 430.142 -0.00370479 452.183 -2.00745" stroke="#E5E2FA" stroke-opacity="0.3" stroke-width="2.00374"/>
<path d="M273.238 71.7052L386.941 148.425L381.171 152.683L266.837 74.7049L273.238 71.7052Z" fill="#F1803E"/>
<path d="M477.697 138.901L567.558 170.982L563.647 176.76L473.222 143.744L477.697 138.901Z" fill="#E6E3FA"/>
<path d="M-5.9159 232.571L78.456 241.894L76.1439 248.436L-8.8969 238.344L-5.9159 232.571Z" fill="#7D86D4"/>
<circle cx="547.361" cy="106.195" r="26.0486" fill="#E6E3FA"/>
</svg>
