<svg width="574" height="276" viewBox="0 0 574 276" fill="none" xmlns="http://www.w3.org/2000/svg">
<path d="M-5.67188 274.509C82.4928 221.41 138.598 204.378 138.598 172.318C138.598 140.258 149.618 102.187 201.715 104.191C253.813 106.195 275.854 156.288 304.908 130.24C333.962 104.191 335.966 57.1031 378.045 35.0619C420.123 13.0207 430.142 -0.00358272 452.183 -2.00732" stroke="#E5E2FA" stroke-width="2.00374"/>
<path d="M273.238 71.7052L386.942 148.425L381.171 152.683L266.838 74.7049L273.238 71.7052Z" fill="#FFA673"/>
<path d="M477.697 138.901L567.558 170.982L563.647 176.76L473.222 143.744L477.697 138.901Z" fill="#E6E3FA"/>
<path d="M-5.91615 232.571L78.4557 241.894L76.1437 248.436L-8.89714 238.344L-5.91615 232.571Z" fill="#73FFDD"/>
<circle cx="547.361" cy="106.195" r="26.0486" fill="#38DBFF"/>
</svg>
